<svg width="177" height="141" viewBox="0 0 177 141" fill="none" xmlns="http://www.w3.org/2000/svg">
<rect x="22" y="76.7468" width="42.9767" height="19.6329" rx="5" fill="#5BC0EB"/>
<rect x="22" y="121.367" width="42.9767" height="19.6329" rx="5" fill="#5BC0EB"/>
<rect x="45.2793" y="99.9495" width="41.186" height="19.6329" rx="5" fill="#5BC0EB"/>
<rect x="68.5581" y="76.7468" width="41.186" height="19.6329" rx="5" fill="#5BC0EB"/>
<rect x="68.5581" y="121.367" width="41.186" height="19.6329" rx="5" fill="#5BC0EB"/>
<rect x="90.0469" y="99.9495" width="41.186" height="19.6329" rx="5" fill="#5BC0EB"/>
<rect x="134.814" y="99.9495" width="19.6977" height="19.6329" rx="5" fill="#5BC0EB"/>
<rect x="22" y="99.9495" width="19.6977" height="19.6329" rx="5" fill="#5BC0EB"/>
<rect x="113.325" y="76.7468" width="41.186" height="19.6329" rx="5" fill="#5BC0EB"/>
<rect x="113.325" y="121.367" width="41.186" height="19.6329" rx="5" fill="#5BC0EB"/>
<path d="M29.1631 10.7263C29.1631 7.75941 31.5683 5.35425 34.5352 5.35425C37.5021 5.35425 39.9073 7.75942 39.9073 10.7263V73.9618C39.9073 74.5141 39.4596 74.9618 38.9073 74.9618H30.1631C29.6108 74.9618 29.1631 74.5141 29.1631 73.9618V10.7263Z" fill="#5BC0EB"/>
<path d="M154.802 8.92383C155.631 8.92383 156.302 9.5954 156.302 10.4238L156.302 12.7783C156.302 13.6067 155.631 14.2783 154.802 14.2783L38.1162 14.2783L38.1162 8.92382L154.802 8.92383Z" fill="#5BC0EB"/>
<path d="M150.93 10.4238C150.93 9.5954 151.602 8.92383 152.43 8.92383H154.803C155.632 8.92383 156.303 9.5954 156.303 10.4238V35.9808C156.303 36.8092 155.632 37.4808 154.803 37.4808H152.43C151.602 37.4808 150.93 36.8092 150.93 35.9808V10.4238Z" fill="#5BC0EB"/>
<rect x="131.232" width="24.9873" height="87.7442" rx="5" transform="rotate(90 131.232 0)" fill="#5BC0EB"/>
<rect x="177" y="38.481" width="7.13924" height="19.6977" rx="3.56962" transform="rotate(90 177 38.481)" fill="#5BC0EB"/>
<path d="M135.056 8.84898C135.056 5.98017 137.381 3.65454 140.25 3.65454C143.119 3.65454 145.445 5.98017 145.445 8.84898V73.9194C145.445 74.4717 144.997 74.9194 144.445 74.9194H136.056C135.503 74.9194 135.056 74.4717 135.056 73.9194V8.84898Z" fill="#5BC0EB"/>
<path d="M82.3862 70.2476H58.0804C57.6069 70.2476 57.1984 69.9156 57.1015 69.4521L53.0428 50.0344C52.913 49.4133 53.3871 48.8298 54.0216 48.8298H85.6332C86.2513 48.8298 86.7214 49.3851 86.6195 49.9948L83.3725 69.4125C83.2919 69.8944 82.8748 70.2476 82.3862 70.2476Z" fill="#5BC0EB"/>
<rect x="51" y="46.4785" width="37.6047" height="3.56962" rx="1" fill="#5BC0EB"/>
<path d="M53.8176 49.048C54.3063 39.9103 61.4605 33.2 69.9755 33.2C78.4663 33.2 85.3222 39.8865 85.7889 49.048H85.781H85.7261H85.6715H85.617H85.5629H85.5089H85.4553H85.4019H85.3487H85.2958H85.2431H85.1907H85.1385H85.0865H85.0348H84.9834H84.9321H84.8811H84.8304H84.7799H84.7296H84.6796H84.6298H84.5802H84.5308H84.4817H84.4328H84.3842H84.3357H84.2875H84.2395H84.1918H84.1442H84.0969H84.0498H84.003H83.9563H83.9099H83.8637H83.8177H83.7719H83.7263H83.6809H83.6358H83.5908H83.5461H83.5016H83.4573H83.4132H83.3692H83.3255H83.282H83.2388H83.1957H83.1528H83.1101H83.0676H83.0253H82.9832H82.9413H82.8996H82.858H82.8167H82.7756H82.7346H82.6939H82.6533H82.6129H82.5727H82.5327H82.4929H82.4532H82.4138H82.3745H82.3354H82.2964H82.2577H82.2191H82.1807H82.1425H82.1044H82.0666H82.0289H81.9913H81.954H81.9168H81.8797H81.8429H81.8062H81.7696H81.7332H81.697H81.661H81.6251H81.5894H81.5538H81.5184H81.4831H81.448H81.4131H81.3783H81.3436H81.3091H81.2748H81.2406H81.2065H81.1726H81.1388H81.1052H81.0718H81.0384H81.0052H80.9722H80.9393H80.9065H80.8739H80.8414H80.809H80.7768H80.7447H80.7127H80.6809H80.6492H80.6176H80.5862H80.5549H80.5237H80.4926H80.4617H80.4309H80.4002H80.3696H80.3391H80.3088H80.2786H80.2485H80.2185H80.1886H80.1588H80.1292H80.0996H80.0702H80.0409H80.0117H79.9826H79.9536H79.9247H79.8959H79.8672H79.8387H79.8102H79.7818H79.7535H79.7253H79.6972H79.6693H79.6414H79.6136H79.5859H79.5582H79.5307H79.5033H79.4759H79.4487H79.4215H79.3944H79.3674H79.3405H79.3137H79.2869H79.2602H79.2336H79.2071H79.1807H79.1543H79.128H79.1018H79.0757H79.0496H79.0236H78.9977H78.9718H78.9461H78.9203H78.8947H78.8691H78.8436H78.8181H78.7927H78.7674H78.7421H78.7169H78.6917H78.6666H78.6415H78.6165H78.5916H78.5667H78.5419H78.5171H78.4923H78.4676H78.443H78.4184H78.3939H78.3694H78.3449H78.3205H78.2961H78.2717H78.2474H78.2232H78.199H78.1748H78.1506H78.1265H78.1024H78.0784H78.0543H78.0303H78.0064H77.9824H77.9585H77.9346H77.9108H77.8869H77.8631H77.8393H77.8156H77.7918H77.7681H77.7444H77.7207H77.697H77.6733H77.6497H77.626H77.6024H77.5788H77.5552H77.5316H77.508H77.4844H77.4608H77.4372H77.4136H77.3901H77.3665H77.3429H77.3193H77.2957H77.2722H77.2486H77.225H77.2014H77.1778H77.1542H77.1306H77.1069H77.0833H77.0596H77.036H77.0123H76.9886H76.9649H76.9411H76.9174H76.8936H76.8698H76.846H76.8222H76.7983H76.7744H76.7505H76.7266H76.7026H76.6786H76.6546H76.6305H76.6065H76.5823H76.5582H76.534H76.5098H76.4855H76.4612H76.4369H76.4125H76.3881H76.3636H76.3391H76.3146H76.29H76.2653H76.2406H76.2159H76.1911H76.1663H76.1414H76.1164H76.0914H76.0664H76.0413H76.0161H75.9909H75.9656H75.9403H75.9149H75.8894H75.8639H75.8383H75.8126H75.7869H75.7611H75.7353H75.7093H75.6833H75.6573H75.6311H75.6049H75.5786H75.5523H75.5258H75.4993H75.4727H75.4461H75.4193H75.3925H75.3656H75.3386H75.3115H75.2843H75.257H75.2297H75.2023H75.1747H75.1471H75.1194H75.0916H75.0637H75.0357H75.0076H74.9795H74.9512H74.9228H74.8943H74.8657H74.8371H74.8083H74.7794H74.7504H74.7213H74.6921H74.6628H74.6333H74.6038H74.5742H74.5444H74.5145H74.4845H74.4544H74.4242H74.3939H74.3634H74.3328H74.3021H74.2713H74.2404H74.2093H74.1781H74.1468H74.1154H74.0838H74.0521H74.0203H73.9883H73.9562H73.924H73.8916H73.8591H73.8265H73.7937H73.7608H73.7278H73.6946H73.6612H73.6278H73.5942H73.5604H73.5265H73.4924H73.4583H73.4239H73.3894H73.3548H73.32H73.285H73.2499H73.2146H73.1792H73.1437H73.1079H73.072H73.036H72.9998H72.9634H72.9269H72.8902H72.8533H72.8163H72.7791H72.7417H72.7042H72.6665H72.6286H72.5905H72.5523H72.5139H72.4753H72.4366H72.3977H72.3586H72.3193H72.2798H72.2402H72.2003H72.1603H72.1201H72.0797H72.0392H71.9984H71.9575H71.9163H71.875H71.8335H71.7918H71.7499H71.7078H71.6655H71.623H71.5803H71.5374H71.4943H71.451H71.4075H71.3638H71.3199H71.2758H71.2315H71.187H71.1422H71.0973H71.0521H71.0068H70.9612H70.9154H70.8694H70.8232H70.7768H70.7301H70.6832H70.6361H70.5888H70.5413H70.4935H70.4456H70.3973H70.3489H70.3003H70.2514H70.2023H70.1529H70.1033H70.0535H70.0035H69.9532H69.9027H69.8519H69.801H69.7497H69.6983H69.6466H69.5946H69.5424H69.49H69.4373H69.3844H69.3312H69.2778H69.2242H69.1702H69.1161H69.0617H69.007H68.9521H68.8971H68.8425H68.7881H68.734H68.6802H68.6267H68.5734H68.5203H68.4676H68.4151H68.3629H68.3109H68.2592H68.2077H68.1566H68.1056H68.055H68.0046H67.9544H67.9045H67.8548H67.8054H67.7563H67.7074H67.6587H67.6103H67.5622H67.5143H67.4666H67.4192H67.372H67.3251H67.2784H67.2319H67.1857H67.1397H67.0939H67.0484H67.0031H66.9581H66.9133H66.8687H66.8243H66.7802H66.7363H66.6926H66.6492H66.6059H66.5629H66.5202H66.4776H66.4353H66.3931H66.3512H66.3095H66.2681H66.2268H66.1858H66.1449H66.1043H66.0639H66.0237H65.9837H65.9439H65.9043H65.865H65.8258H65.7868H65.748H65.7095H65.6711H65.6329H65.595H65.5572H65.5196H65.4822H65.445H65.408H65.3712H65.3346H65.2982H65.2619H65.2259H65.19H65.1543H65.1188H65.0835H65.0483H65.0134H64.9786H64.944H64.9095H64.8753H64.8412H64.8073H64.7736H64.74H64.7066H64.6734H64.6404H64.6075H64.5748H64.5422H64.5098H64.4776H64.4455H64.4136H64.3819H64.3503H64.3189H64.2876H64.2565H64.2256H64.1948H64.1641H64.1336H64.1032H64.073H64.043H64.0131H63.9833H63.9537H63.9242H63.8949H63.8657H63.8367H63.8078H63.779H63.7504H63.7219H63.6935H63.6653H63.6372H63.6092H63.5814H63.5537H63.5261H63.4987H63.4714H63.4442H63.4171H63.3902H63.3634H63.3367H63.3101H63.2836H63.2573H63.2311H63.2049H63.179H63.1531H63.1273H63.1017H63.0761H63.0507H63.0253H63.0001H62.975H62.95H62.9251H62.9003H62.8756H62.851H62.8265H62.8021H62.7778H62.7536H62.7295H62.7055H62.6816H62.6577H62.634H62.6104H62.5868H62.5633H62.54H62.5167H62.4935H62.4703H62.4473H62.4243H62.4014H62.3786H62.3559H62.3333H62.3107H62.2882H62.2658H62.2434H62.2212H62.199H62.1768H62.1548H62.1328H62.1108H62.089H62.0672H62.0455H62.0238H62.0022H61.9806H61.9591H61.9377H61.9163H61.895H61.8737H61.8525H61.8314H61.8103H61.7892H61.7682H61.7472H61.7263H61.7055H61.6846H61.6639H61.6431H61.6224H61.6018H61.5812H61.5606H61.5401H61.5196H61.4991H61.4787H61.4583H61.438H61.4176H61.3974H61.3771H61.3568H61.3366H61.3165H61.2963H61.2762H61.256H61.236H61.2159H61.1958H61.1758H61.1558H61.1358H61.1158H61.0958H61.0759H61.0559H61.036H61.0161H60.9962H60.9763H60.9564H60.9365H60.9166H60.8967H60.8768H60.857H60.8371H60.8172H60.7973H60.7774H60.7576H60.7377H60.7178H60.6979H60.6779H60.658H60.6381H60.6181H60.5982H60.5782H60.5582H60.5382H60.5182H60.4982H60.4781H60.4581H60.438H60.4178H60.3977H60.3775H60.3574H60.3371H60.3169H60.2966H60.2763H60.256H60.2356H60.2152H60.1948H60.1743H60.1538H60.1333H60.1127H60.0921H60.0715H60.0508H60.03H60.0093H59.9884H59.9676H59.9466H59.9257H59.9047H59.8836H59.8625H59.8413H59.8201H59.7988H59.7775H59.7561H59.7347H59.7132H59.6916H59.67H59.6483H59.6265H59.6047H59.5829H59.5609H59.5389H59.5168H59.4947H59.4725H59.4502H59.4278H59.4054H59.3829H59.3603H59.3377H59.3149H59.2921H59.2692H59.2462H59.2232H59.2H59.1768H59.1535H59.1301H59.1066H59.0831H59.0594H59.0356H59.0118H58.9879H58.9638H58.9397H58.9155H58.8912H58.8668H58.8423H58.8176H58.7929H58.7681H58.7432H58.7182H58.693H58.6678H58.6424H58.617H58.5914H58.5658H58.54H58.5141H58.4881H58.4619H58.4357H58.4093H58.3829H58.3563H58.3295H58.3027H58.2757H58.2486H58.2214H58.1941H58.1666H58.139H58.1113H58.0835H58.0555H58.0274H57.9991H57.9707H57.9422H57.9136H57.8848H57.8558H57.8268H57.7976H57.7682H57.7387H57.7091H57.6793H57.6494H57.6193H57.589H57.5587H57.5281H57.4975H57.4666H57.4357H57.4045H57.3732H57.3418H57.3102H57.2784H57.2465H57.2144H57.1821H57.1497H57.1171H57.0844H57.0515H57.0184H56.9851H56.9517H56.9181H56.8844H56.8505H56.8163H56.7821H56.7476H56.713H56.6782H56.6432H56.608H56.5726H56.5371H56.5014H56.4655H56.4294H56.3931H56.3566H56.32H56.2832H56.2461H56.2089H56.1715H56.1339H56.096H56.058H56.0198H55.9814H55.9428H55.904H55.865H55.8258H55.7864H55.7468H55.707H55.6669H55.6267H55.5863H55.5456H55.5047H55.4636H55.4224H55.3808H55.3391H55.2972H55.255H55.2126H55.17H55.1272H55.0842H55.0409H54.9974H54.9537H54.9098H54.8656H54.8212H54.7766H54.7317H54.6866H54.6413H54.5958H54.55H54.504H54.4577H54.4112H54.3644H54.3175H54.2702H54.2228H54.1751H54.1271H54.0789H54.0305H53.9818H53.9328H53.8837H53.8342H53.8176Z" stroke="#5BC0EB" stroke-width="2"/>
<path d="M69 25H71V33H69V25Z" fill="#5BC0EB"/>
<path d="M67.5 35C66.6716 35 66 34.3284 66 33.5C66 32.6716 66.6716 32 67.5 32L72.5 32C73.3284 32 74 32.6716 74 33.5C74 34.3284 73.3284 35 72.5 35L67.5 35Z" fill="#5BC0EB"/>
<path d="M153.616 36.6963V37.5732C153.616 40.0461 155.621 42.0507 158.094 42.0507V42.0507" stroke="#5BC0EB" stroke-width="3"/>
</svg>
